# xmcd CD database file
#
# Track frame offsets:
#	150
#	11333
#	35971
#	51836
#	66541
#	79181
#	95883
#	110068
#	120039
#	133256
#	145008
#	166532
#	193406
#
# Disc length: 3635 seconds
#
# Revision: 0
# Processed by: cddbd v1.5.1PL2 Copyright (c) Steve Scherf et al.
# Submitted via: CDex 1.51
#
DISCID=bb0e310d
DTITLE=Redd Volkaert - For The Ladies
DYEAR=2004
DGENRE=Country
TTITLE0=No Stranger To A Tele
TTITLE1=She Loves Anything That Swings
TTITLE2=T'Wango
TTITLE3=You're Still On My Mind
TTITLE4=The Buck Stops Here
TTITLE5=Truck Drivin Man
TTITLE6=Home In San Antone
TTITLE7=Chee-Z
TTITLE8=Back To Back
TTITLE9=Breakneck
TTITLE10=It's A Minor Thing
TTITLE11=Telewacker
TTITLE12=Interviews
EXTD=YEAR: 2004
EXTT0=
EXTT1=
EXTT2=
EXTT3=
EXTT4=
EXTT5=
EXTT6=
EXTT7=
EXTT8=
EXTT9=
EXTT10=
EXTT11=
EXTT12=
PLAYORDER=
